<?xml version="1.0" encoding="UTF-8"?>
<svg xmlns="http://www.w3.org/2000/svg" version="1.1" width="100" height="100" viewBox="0 0 100 100"><rect x="0" y="0" width="100" height="100" fill="#ffffff"/><g transform="scale(3.448)"><g transform="translate(0,0)"><path fill-rule="evenodd" d="M8 0L8 1L9 1L9 2L10 2L10 3L11 3L11 1L14 1L14 2L12 2L12 4L11 4L11 5L10 5L10 4L9 4L9 5L10 5L10 8L9 8L9 6L8 6L8 8L9 8L9 10L10 10L10 11L8 11L8 9L7 9L7 8L6 8L6 9L7 9L7 10L4 10L4 11L3 11L3 9L5 9L5 8L3 8L3 9L2 9L2 8L0 8L0 9L1 9L1 11L0 11L0 12L4 12L4 13L5 13L5 11L7 11L7 12L6 12L6 13L7 13L7 14L4 14L4 15L3 15L3 13L2 13L2 14L1 14L1 15L0 15L0 21L2 21L2 20L3 20L3 21L5 21L5 20L6 20L6 21L7 21L7 20L6 20L6 19L9 19L9 21L8 21L8 22L9 22L9 24L8 24L8 26L9 26L9 27L8 27L8 29L10 29L10 28L9 28L9 27L10 27L10 26L11 26L11 23L10 23L10 22L11 22L11 19L12 19L12 21L14 21L14 20L15 20L15 22L16 22L16 21L17 21L17 20L18 20L18 22L17 22L17 25L18 25L18 22L19 22L19 21L20 21L20 25L19 25L19 26L21 26L21 28L18 28L18 26L17 26L17 27L15 27L15 25L16 25L16 24L15 24L15 23L14 23L14 24L12 24L12 28L11 28L11 29L16 29L16 28L17 28L17 29L21 29L21 28L23 28L23 29L25 29L25 28L26 28L26 27L27 27L27 28L28 28L28 27L29 27L29 26L28 26L28 24L27 24L27 23L26 23L26 26L25 26L25 28L24 28L24 27L22 27L22 26L23 26L23 25L25 25L25 22L27 22L27 21L28 21L28 22L29 22L29 19L28 19L28 18L27 18L27 19L28 19L28 20L26 20L26 21L25 21L25 19L26 19L26 16L27 16L27 15L29 15L29 12L28 12L28 14L27 14L27 12L26 12L26 10L27 10L27 11L29 11L29 8L28 8L28 9L23 9L23 8L22 8L22 9L20 9L20 8L21 8L21 5L20 5L20 4L21 4L21 0L16 0L16 2L17 2L17 1L20 1L20 2L19 2L19 3L20 3L20 4L18 4L18 3L16 3L16 4L15 4L15 5L12 5L12 4L14 4L14 3L15 3L15 0L11 0L11 1L9 1L9 0ZM16 4L16 5L17 5L17 4ZM11 5L11 7L12 7L12 9L10 9L10 10L12 10L12 11L13 11L13 13L11 13L11 12L10 12L10 14L13 14L13 13L14 13L14 12L15 12L15 10L17 10L17 11L18 11L18 12L17 12L17 13L16 13L16 17L15 17L15 18L14 18L14 17L13 17L13 16L14 16L14 15L12 15L12 16L11 16L11 17L8 17L8 16L10 16L10 15L9 15L9 14L7 14L7 15L4 15L4 16L3 16L3 15L2 15L2 16L1 16L1 18L2 18L2 17L3 17L3 18L5 18L5 17L6 17L6 18L7 18L7 17L8 17L8 18L9 18L9 19L10 19L10 18L11 18L11 17L13 17L13 18L12 18L12 19L13 19L13 18L14 18L14 19L15 19L15 20L16 20L16 19L17 19L17 18L16 18L16 17L20 17L20 18L18 18L18 19L20 19L20 20L24 20L24 19L25 19L25 18L23 18L23 17L25 17L25 16L26 16L26 15L25 15L25 16L23 16L23 15L24 15L24 14L23 14L23 15L22 15L22 14L19 14L19 13L18 13L18 12L19 12L19 11L18 11L18 9L17 9L17 8L18 8L18 6L19 6L19 8L20 8L20 5L18 5L18 6L17 6L17 8L16 8L16 9L15 9L15 8L14 8L14 6L13 6L13 7L12 7L12 5ZM15 6L15 7L16 7L16 6ZM13 8L13 9L12 9L12 10L13 10L13 9L14 9L14 8ZM19 9L19 10L20 10L20 9ZM22 9L22 10L21 10L21 12L22 12L22 13L24 13L24 11L25 11L25 10L24 10L24 11L23 11L23 9ZM7 12L7 13L9 13L9 12ZM25 13L25 14L26 14L26 13ZM17 14L17 15L19 15L19 14ZM6 16L6 17L7 17L7 16ZM20 16L20 17L23 17L23 16ZM22 18L22 19L23 19L23 18ZM3 19L3 20L4 20L4 19ZM21 21L21 24L24 24L24 21ZM12 22L12 23L13 23L13 22ZM22 22L22 23L23 23L23 22ZM9 24L9 26L10 26L10 24ZM21 25L21 26L22 26L22 25ZM0 0L0 7L7 7L7 0ZM1 1L1 6L6 6L6 1ZM2 2L2 5L5 5L5 2ZM22 0L22 7L29 7L29 0ZM23 1L23 6L28 6L28 1ZM24 2L24 5L27 5L27 2ZM0 22L0 29L7 29L7 22ZM1 23L1 28L6 28L6 23ZM2 24L2 27L5 27L5 24Z" fill="#000000"/></g></g></svg>
